<svg xmlns="http://www.w3.org/2000/svg" version="1.1" xmlns:xlink="http://www.w3.org/1999/xlink" xmlns:svgjs="http://svgjs.dev/svgjs" width="1500" height="534" viewBox="0 0 1500 534"><g transform="matrix(1,0,0,1,-0.9090909090909918,-0.8756040842563948)"><svg viewBox="0 0 396 141" data-background-color="#ffffff" preserveAspectRatio="xMidYMid meet" height="534" width="1500" xmlns="http://www.w3.org/2000/svg" xmlns:xlink="http://www.w3.org/1999/xlink"><g id="tight-bounds" transform="matrix(1,0,0,1,0.2400000000000091,0.23119883123624163)"><svg viewBox="0 0 395.52 140.53760233752755" height="140.53760233752755" width="395.52"><g><svg viewBox="0 0 395.52 140.53760233752755" height="140.53760233752755" width="395.52"><g><svg viewBox="0 0 395.52 140.53760233752755" height="140.53760233752755" width="395.52"><g id="textblocktransform"><svg viewBox="0 0 395.52 140.53760233752755" height="140.53760233752755" width="395.52" id="textblock"><g><svg viewBox="0 0 395.52 97.08394698085418" height="97.08394698085418" width="395.52"><g transform="matrix(1,0,0,1,0,0)"><svg width="395.52" viewBox="0.3 -37.5 203.07999999999998 50" height="97.08394698085418" data-palette-color="#0e5ddd"><g class="wordmark-text-0" data-fill-palette-color="primary" id="text-0"><path d="M6.65-33.5L6.65-33.5Q9.2-35.15 12.13-36.08 15.05-37 17.85-37L17.85-37Q18.2-37 18.63-36.98 19.05-36.95 19.85-36.9L19.85-36.9 12.15-1Q13.3-0.75 14.63-0.18 15.95 0.4 18.65 1.85L18.65 1.85Q22.7 4.05 24.85 4.75 27 5.45 28.95 5.45L28.95 5.45Q30.1 5.45 31.13 5.25 32.15 5.05 33.15 4.65L33.15 4.65Q32.75 8.25 31.35 10.38 29.95 12.5 27.95 12.5L27.95 12.5Q26.15 12.5 24.13 11.53 22.1 10.55 18 7.3L18 7.3Q13.3 3.5 10.7 2.33 8.1 1.15 5.65 1.15L5.65 1.15Q5.2 1.15 4.95 1.15 4.7 1.15 4.5 1.2L4.5 1.2 11.95-33.45Q8.55-32.05 6.75-29.25 4.95-26.45 4.95-22.55L4.95-22.55Q4.95-21.6 5.08-20.9 5.2-20.2 5.5-19.55L5.5-19.55Q5.6-19.35 5.63-19.28 5.65-19.2 5.65-19.15L5.65-19.15Q2.85-19.15 1.58-20.33 0.3-21.5 0.3-24L0.3-24Q0.3-26.5 1.98-29 3.65-31.5 6.65-33.5ZM37.3-20.65L37.3-20.65Q37.3-16.5 33.9-13.43 30.5-10.35 25.8-10.1L25.8-10.1Q25.75-9.25 25.72-8.83 25.7-8.4 25.7-8.1L25.7-8.1Q25.7-5.8 26.47-4.85 27.25-3.9 29.3-3.9L29.3-3.9Q31.65-3.9 33.62-4.98 35.6-6.05 38.15-8.95L38.15-8.95 39.85-8.95Q36.95-4.25 33.55-1.98 30.15 0.3 26.1 0.3L26.1 0.3Q22.25 0.3 20.27-1.7 18.3-3.7 18.3-7.65L18.3-7.65Q18.3-10.5 19.2-13.7 20.1-16.9 21.6-19.4L21.6-19.4Q23.45-22.4 26.02-23.93 28.6-25.45 31.8-25.45L31.8-25.45Q34.55-25.45 35.92-24.28 37.3-23.1 37.3-20.65ZM32.2-22.8L32.2-22.8Q30.5-22.8 28.77-19.78 27.05-16.75 26.2-12.5L26.2-12.5Q29.1-12.7 31.27-15.18 33.45-17.65 33.45-20.75L33.45-20.75Q33.45-21.8 33.15-22.3 32.85-22.8 32.2-22.8ZM54.4-22.7L54.4-22.7 54.4-22.4 54.95-25 62.15-25 57.2-1.8Q59.7-2.7 61.12-4.33 62.55-5.95 63.5-8.95L63.5-8.95 65.59-8.95Q64.45-5.15 62.32-2.85 60.2-0.55 56.75 0.4L56.75 0.4 56 4Q55.09 8.2 52.85 10.35 50.6 12.5 47 12.5L47 12.5Q44.45 12.5 42.92 11.2 41.4 9.9 41.4 7.65L41.4 7.65Q41.4 5.2 43.42 3.33 45.45 1.45 49.55 0.2L49.55 0.2 50.15-2.45Q48.85-1.1 47.35-0.4 45.85 0.3 44.15 0.3L44.15 0.3Q41.05 0.3 39.27-1.8 37.5-3.9 37.5-7.75L37.5-7.75Q37.5-10.55 38.35-13.6 39.2-16.65 40.7-19.15L40.7-19.15Q42.55-22.1 45-23.68 47.45-25.25 50.35-25.25L50.35-25.25Q52.3-25.25 53.35-24.58 54.4-23.9 54.4-22.7ZM51.4-8.45L53.95-20.3Q53.9-21.1 53.35-21.63 52.8-22.15 51.9-22.15L51.9-22.15Q49.15-22.15 47.02-17.55 44.9-12.95 44.9-8.45L44.9-8.45Q44.9-6.5 45.45-5.53 46-4.55 47.4-4.55L47.4-4.55Q48.6-4.55 49.77-5.65 50.95-6.75 51.4-8.45L51.4-8.45ZM48.75 4.15L49.05 2.7Q46.55 3.65 45.35 4.67 44.15 5.7 44.15 6.95L44.15 6.95Q44.15 7.6 44.65 8.1 45.15 8.6 45.85 8.6L45.85 8.6Q46.7 8.6 47.5 7.4 48.3 6.2 48.75 4.15L48.75 4.15ZM79.74-22.7L79.74-22.7 79.74-22.35 80.29-25 87.49-25 83.89-8Q83.79-7.55 83.74-7.18 83.69-6.8 83.69-6.4L83.69-6.4Q83.69-5.3 84.19-4.78 84.69-4.25 85.74-4.25L85.74-4.25Q87.04-4.25 88.09-5.48 89.14-6.7 89.79-8.95L89.79-8.95 91.89-8.95Q90.29-4.35 87.74-2.02 85.19 0.3 81.84 0.3L81.84 0.3Q79.69 0.3 78.42-0.9 77.14-2.1 76.94-4.3L76.94-4.3Q75.39-2 73.52-0.85 71.64 0.3 69.49 0.3L69.49 0.3Q66.39 0.3 64.62-1.8 62.84-3.9 62.84-7.75L62.84-7.75Q62.84-10.55 63.69-13.6 64.54-16.65 66.04-19.15L66.04-19.15Q67.89-22.1 70.34-23.68 72.79-25.25 75.69-25.25L75.69-25.25Q77.64-25.25 78.69-24.58 79.74-23.9 79.74-22.7ZM76.89-8.95L79.29-20.25Q79.29-21 78.74-21.58 78.19-22.15 77.24-22.15L77.24-22.15Q74.49-22.15 72.37-17.55 70.24-12.95 70.24-8.45L70.24-8.45Q70.24-6.5 70.79-5.53 71.34-4.55 72.74-4.55L72.74-4.55Q74.04-4.55 75.27-5.8 76.49-7.05 76.89-8.95L76.89-8.95ZM89.39-5.7L89.39-5.7Q89.39-6.35 89.49-7.18 89.59-8 89.79-8.95L89.79-8.95 95.14-34 102.54-35 96.79-8Q96.69-7.55 96.64-7.18 96.59-6.8 96.59-6.4L96.59-6.4Q96.59-5.4 97.07-4.98 97.54-4.55 98.64-4.55L98.64-4.55Q100.04-4.55 101.29-5.78 102.54-7 103.14-8.95L103.14-8.95 105.24-8.95Q103.64-4.4 100.94-2.05 98.24 0.3 94.74 0.3L94.74 0.3Q92.24 0.3 90.82-1.28 89.39-2.85 89.39-5.7ZM113.39-3.75L113.39-3.75Q114.49-3.65 115.06-3.6 115.64-3.55 116.09-3.55L116.09-3.55Q117.19-3.55 117.76-3.8 118.34-4.05 118.44-4.55L118.44-4.55Q117.99-4.6 117.74-4.88 117.49-5.15 117.49-5.6L117.49-5.6Q117.49-6.45 118.29-7.1 119.09-7.75 120.29-7.75L120.29-7.75Q121.34-7.75 121.91-7.1 122.49-6.45 122.49-5.35L122.49-5.35Q122.49-3.3 120.71-1.65 118.94 0 116.39 0L116.39 0 103.14 0 115.89-22.3 113.09-22.3Q111.54-22.3 110.94-22.1 110.34-21.9 110.34-21.5L110.34-21.5Q110.34-21.5 110.61-21.3 110.89-21.1 110.89-20.4L110.89-20.4Q110.89-19.2 110.11-18.48 109.34-17.75 108.19-17.75L108.19-17.75Q107.19-17.75 106.54-18.35 105.89-18.95 105.89-19.95L105.89-19.95Q105.89-21.8 107.61-23.4 109.34-25 111.69-25L111.69-25 124.54-25 112.29-3.85Q112.44-3.85 112.66-3.83 112.89-3.8 113.39-3.75ZM131.49-34L131.49-34Q134.04-35.65 136.96-36.58 139.89-37.5 142.69-37.5L142.69-37.5Q143.04-37.5 143.46-37.48 143.89-37.45 144.69-37.4L144.69-37.4 141.49-22.5 148.84-22.5 152.04-37.4 159.24-37.4 151.29 0 144.09 0 148.09-18.8 140.74-18.8 136.74 0 129.54 0 136.79-34Q133.39-32.6 131.59-29.78 129.79-26.95 129.79-23.05L129.79-23.05Q129.79-22.1 129.91-21.4 130.04-20.7 130.34-20.05L130.34-20.05Q130.44-19.85 130.46-19.78 130.49-19.7 130.49-19.65L130.49-19.65Q127.69-19.65 126.41-20.83 125.14-22 125.14-24.5L125.14-24.5Q125.14-27 126.81-29.5 128.49-32 131.49-34ZM166.13-4.55L166.13-4.55Q167.43-4.55 168.46-5.68 169.48-6.8 170.13-8.95L170.13-8.95 173.53-25 180.73-25 177.13-8Q177.03-7.55 176.98-7.18 176.93-6.8 176.93-6.4L176.93-6.4Q176.93-5.4 177.41-4.98 177.88-4.55 178.98-4.55L178.98-4.55Q180.28-4.55 181.33-5.7 182.38-6.85 183.03-8.95L183.03-8.95 185.13-8.95Q183.53-4.35 180.98-2.02 178.43 0.3 175.08 0.3L175.08 0.3Q172.93 0.3 171.63-0.93 170.33-2.15 170.13-4.45L170.13-4.45Q168.68-2.05 166.86-0.88 165.03 0.3 162.73 0.3L162.73 0.3Q160.23 0.3 158.81-1.28 157.38-2.85 157.38-5.7L157.38-5.7Q157.38-6.35 157.48-7.18 157.58-8 157.78-8.95L157.78-8.95 161.18-25 168.38-25 164.78-8Q164.68-7.6 164.66-7.28 164.63-6.95 164.63-6.6L164.63-6.6Q164.63-5.6 165.01-5.08 165.38-4.55 166.13-4.55ZM189.68 0.3L189.68 0.3Q186.33 0.3 184.51-1.38 182.68-3.05 182.68-6.1L182.68-6.1Q182.68-6.8 182.78-7.5 182.88-8.2 183.03-8.95L183.03-8.95 188.38-34 195.78-35 193.38-23.75Q194.58-24.5 195.51-24.83 196.43-25.15 197.48-25.15L197.48-25.15Q200.43-25.15 201.91-23.03 203.38-20.9 203.38-16.6L203.38-16.6Q203.38-13.65 202.48-10.55 201.58-7.45 199.98-5.15L199.98-5.15Q198.13-2.45 195.53-1.07 192.93 0.3 189.68 0.3ZM189.83-6.85L189.83-6.85Q189.83-5.7 190.51-5.13 191.18-4.55 192.48-4.55L192.48-4.55Q194.73-4.55 196.53-8.5 198.33-12.45 198.33-16.8L198.33-16.8Q198.33-18.9 197.61-20.25 196.88-21.6 195.68-21.6L195.68-21.6Q194.88-21.6 193.98-21.35 193.08-21.1 192.73-20.7L192.73-20.7 189.98-8Q189.93-7.7 189.88-7.4 189.83-7.1 189.83-6.85Z" fill="#0e5ddd" data-fill-palette-color="primary"></path></g></svg></g></svg></g><g transform="matrix(1,0,0,1,0,120.00313684830631)"><svg viewBox="0 0 232.209792 20.53446548922124" height="20.53446548922124" width="232.209792"><g transform="matrix(1,0,0,1,0,0)"><svg width="232.209792" viewBox="1.32 -39.87 599.03 52.98" height="20.53446548922124" data-palette-color="#0e5ddd"><path d="M6.57-10.11L8.2-32.15Q8.23-32.59 8.25-32.89 8.28-33.18 8.34-33.37 8.4-33.57 8.52-33.67 8.64-33.76 8.91-33.81L8.91-33.81 17.36-35.84Q17.68-35.94 17.99-35.94L17.99-35.94Q18.33-35.94 18.47-35.72 18.6-35.5 18.6-34.89L18.6-34.89 17.87-27.05 17.43-22.36Q17.29-20.73 17.14-19.19 16.99-17.65 16.86-16.35 16.72-15.04 16.63-14.03 16.53-13.01 16.48-12.4L16.48-12.4 16.43-11.69Q16.24-8.91 15.37-6.37 14.5-3.83 13.07-1.89 11.65 0.05 9.68 1.2 7.71 2.34 5.32 2.34L5.32 2.34Q4.1 2.34 3.5 2.29 2.91 2.25 2.65 2.14 2.39 2.03 2.33 1.84 2.27 1.66 2.12 1.39L2.12 1.39 1.32-4.54Q1.32-4.59 1.48-4.75 1.64-4.91 1.73-4.96L1.73-4.96Q2.61-5.3 3.47-5.74 4.32-6.18 4.99-6.77 5.66-7.37 6.09-8.19 6.52-9.01 6.57-10.11L6.57-10.11ZM49.09-27L46.8-3.03Q46.73-2.22 46.6-1.92 46.48-1.61 46.07-1.51L46.07-1.51Q43.99-0.93 41.73-0.33 39.48 0.27 37.35 1.25L37.35 1.25Q37.28 1.27 37.13 1.27L37.13 1.27Q36.94 1.27 36.9 1.17 36.86 1.07 36.86 0.95L36.86 0.95Q36.86 0.9 36.87 0.78 36.89 0.66 36.94 0.33 36.98 0 37.07-0.59 37.16-1.17 37.3-2.15L37.3-2.15Q34.57-0.37 32.46 0.45 30.34 1.27 28.71 1.27L28.71 1.27Q24.63 1.27 22.76-0.7 20.9-2.66 20.9-6.57L20.9-6.57Q20.9-7.28 20.92-8.02 20.94-8.76 21.07-9.55L21.07-9.55Q21.34-12.43 21.53-14.49 21.73-16.55 21.85-17.99 21.97-19.43 22.06-20.35 22.14-21.26 22.2-21.88 22.26-22.49 22.3-22.89 22.34-23.29 22.39-23.68L22.39-23.68Q22.48-24.46 22.57-24.78 22.65-25.1 23.12-25.2L23.12-25.2Q24.27-25.42 25.3-25.6 26.34-25.78 27.35-25.99 28.37-26.2 29.42-26.44 30.47-26.68 31.64-27.03L31.64-27.03Q31.69-27.03 31.74-27.04 31.78-27.05 31.83-27.05L31.83-27.05Q32.13-27.05 32.13-26.86L32.13-26.86 32.13-26.81Q32.03-25.98 31.96-25.24 31.88-24.51 31.81-23.74 31.74-22.97 31.65-22.09 31.56-21.22 31.44-20.06 31.32-18.9 31.15-17.38 30.98-15.87 30.73-13.87L30.73-13.87Q30.59-12.4 30.44-10.95 30.3-9.5 30.3-8.25L30.3-8.25Q30.3-7.57 30.39-6.99 30.49-6.42 30.75-6.02 31-5.62 31.42-5.4 31.83-5.18 32.49-5.18L32.49-5.18Q33.01-5.18 33.88-5.41 34.76-5.64 35.64-6.21 36.52-6.79 37.19-7.73 37.86-8.67 37.96-10.11L37.96-10.11Q38.13-12.52 38.27-14.15 38.4-15.77 38.5-16.88 38.6-17.99 38.67-18.75 38.74-19.51 38.8-20.2 38.86-20.9 38.91-21.69 38.96-22.49 39.01-23.68L39.01-23.68Q39.08-24.49 39.19-24.79 39.3-25.1 39.74-25.2L39.74-25.2Q41.97-25.63 44.28-26.09 46.6-26.54 48.83-27.25L48.83-27.25Q49.02-27.25 49.06-27.19 49.09-27.12 49.09-27L49.09-27ZM52.68-0.07L52.36-6.74Q52.36-6.76 52.35-6.77 52.34-6.79 52.34-6.81L52.34-6.81Q52.34-7.13 52.68-7.13L52.68-7.13Q52.9-7.13 53.07-6.96L53.07-6.96Q54.05-6.03 55.31-5.44 56.56-4.86 58.03-4.86L58.03-4.86Q58.42-4.86 58.93-4.94 59.44-5.03 59.91-5.22 60.37-5.42 60.68-5.75 60.98-6.08 60.98-6.57L60.98-6.57Q60.98-7.1 60.71-7.56 60.44-8.01 60-8.3L60-8.3Q59.76-8.47 59.15-8.9 58.54-9.33 57.84-9.81 57.15-10.3 56.53-10.74 55.9-11.18 55.66-11.38L55.66-11.38Q54.56-12.21 53.91-13.06 53.27-13.92 52.92-14.83 52.58-15.75 52.49-16.75 52.39-17.75 52.39-18.87L52.39-18.87Q52.39-20.58 53.29-22.09 54.19-23.61 55.67-24.76 57.15-25.9 59.03-26.57 60.91-27.25 62.86-27.25L62.86-27.25Q64.47-27.25 66.04-26.76 67.6-26.27 68.94-25.1L68.94-25.1Q69.06-23.56 69.11-22.07 69.16-20.58 69.26-18.95L69.26-18.95Q69.26-18.63 69.11-18.52 68.96-18.41 68.77-18.41L68.77-18.41Q68.6-18.41 68.48-18.53L68.48-18.53Q67.91-19.07 67.33-19.59 66.74-20.12 66.1-20.52 65.45-20.92 64.72-21.18 63.98-21.44 63.15-21.44L63.15-21.44Q62.64-21.44 62.13-21.35 61.62-21.26 61.2-21.03 60.79-20.8 60.53-20.41 60.27-20.02 60.27-19.41L60.27-19.41Q60.27-18.7 60.44-18.19 60.62-17.68 61.25-17.19L61.25-17.19 65.79-14.11Q67.04-13.26 67.81-12.44 68.57-11.62 69.01-10.82 69.45-10.01 69.61-9.22 69.77-8.42 69.77-7.64L69.77-7.64Q69.77-5.44 68.76-3.77 67.74-2.1 66.13-0.99 64.52 0.12 62.48 0.7 60.44 1.27 58.39 1.27L58.39 1.27Q56.83 1.27 55.38 0.94 53.93 0.61 52.68-0.07L52.68-0.07ZM90.69-18.82L86.15-18.82Q85.81-16.26 85.5-13.71 85.2-11.16 85.12-8.94L85.12-8.94Q85.12-7.98 85.27-7.35 85.42-6.71 85.7-6.35 85.98-5.98 86.37-5.82 86.76-5.66 87.25-5.66L87.25-5.66Q88.03-5.66 88.96-5.9 89.89-6.13 90.81-6.49L90.81-6.49Q91.11-6.62 91.31-6.68 91.52-6.74 91.67-6.74L91.67-6.74Q91.91-6.74 92-6.52 92.08-6.3 92.17-5.75 92.25-5.2 92.42-4.27 92.6-3.34 92.99-1.93L92.99-1.93Q93.01-1.81 93.02-1.72 93.03-1.64 93.03-1.56L93.03-1.56Q93.03-1.22 92.78-1.07 92.52-0.93 91.94-0.73L91.94-0.73Q90.93-0.39 89.82-0.04 88.71 0.32 87.63 0.61 86.54 0.9 85.54 1.09 84.54 1.27 83.78 1.27L83.78 1.27Q79.7 1.27 77.84-0.76 75.97-2.78 75.97-6.93L75.97-6.93Q75.97-7.64 76.02-8.39 76.07-9.13 76.14-9.94L76.14-9.94Q76.38-12.38 76.57-14.56 76.75-16.75 76.95-18.75L76.95-18.75 74.38-18.75Q73.06-18.75 72.48-18.86 71.89-18.97 71.89-19.31L71.89-19.31Q71.89-19.41 72.14-19.84 72.38-20.26 72.76-20.86 73.14-21.46 73.58-22.14 74.02-22.83 74.42-23.43 74.82-24.02 75.11-24.46 75.41-24.9 75.48-25L75.48-25 77.21-25Q77.43-26.86 77.57-28.11 77.7-29.37 77.79-30.2 77.87-31.03 77.95-31.48 78.02-31.93 78.11-32.15 78.19-32.37 78.33-32.43 78.46-32.5 78.68-32.54L78.68-32.54Q79.78-32.76 80.8-32.95 81.83-33.13 82.85-33.33 83.88-33.52 84.94-33.78 86-34.03 87.15-34.38L87.15-34.38Q87.22-34.38 87.25-34.39 87.27-34.4 87.35-34.4L87.35-34.4Q87.64-34.4 87.64-34.2L87.64-34.2 87.64-34.16Q87.52-32.81 87.26-30.42 87-28.03 86.69-25L86.69-25 93.23-25Q93.43-25 93.61-24.87 93.79-24.73 93.79-24.41L93.79-24.41Q93.79-24.29 93.5-23.54 93.21-22.78 92.67-21.56L92.67-21.56 91.79-19.58Q91.62-19.21 91.44-19.04 91.25-18.87 90.69-18.82L90.69-18.82ZM96.43-10.35L96.43-10.35Q96.74-13.7 97.06-16.97 97.38-20.24 97.62-23.68L97.62-23.68Q97.67-24.49 97.78-24.79 97.89-25.1 98.33-25.2L98.33-25.2Q100.41-25.61 102.68-26.06 104.95-26.51 107.07-27.22L107.07-27.22Q107.14-27.25 107.29-27.25L107.29-27.25Q107.56-27.25 107.56-27.05L107.56-27.05 105.36-3.27Q105.29-2.47 105.19-2.16 105.09-1.86 104.65-1.76L104.65-1.76Q102.58-1.12 100.45-0.34 98.33 0.44 95.96 1.25L95.96 1.25Q95.89 1.27 95.74 1.27L95.74 1.27Q95.47 1.27 95.47 1.03L95.47 1.03Q95.47 1 95.52 0.37 95.57-0.27 95.66-1.27 95.74-2.27 95.84-3.52 95.94-4.76 96.05-6.01 96.16-7.25 96.25-8.4 96.35-9.55 96.43-10.35ZM98.26-29.83L98.26-29.83Q98.33-30.88 98.37-31.45 98.4-32.01 98.43-32.29 98.45-32.57 98.45-32.64 98.45-32.71 98.46-32.75 98.48-32.79 98.49-32.9 98.5-33.01 98.53-33.36 98.55-33.72 98.6-34.4 98.65-35.08 98.74-36.28L98.74-36.28Q98.79-37.08 98.9-37.39 99.01-37.7 99.45-37.79L99.45-37.79Q101.53-38.21 103.8-38.66 106.07-39.11 108.19-39.82L108.19-39.82Q108.27-39.84 108.41-39.84L108.41-39.84Q108.49-39.7 108.61-39.65L108.61-39.65 108.68-39.6 108.14-32.91Q108.07-32.1 107.96-31.79 107.85-31.47 107.44-31.4L107.44-31.4Q105.36-31.01 103.24-30.54 101.11-30.08 98.74-29.61L98.74-29.61Q98.67-29.59 98.53-29.59L98.53-29.59Q98.26-29.59 98.26-29.83ZM110.24-11.91L110.24-11.91Q110.24-15.11 111.43-17.91 112.61-20.7 114.7-22.78 116.78-24.85 119.63-26.05 122.47-27.25 125.82-27.25L125.82-27.25Q128.09-27.25 129.7-26.88 131.31-26.51 132.34-26.06 133.36-25.61 133.84-25.23 134.31-24.85 134.31-24.83L134.31-24.83Q134.31-24.68 134.2-24.01 134.09-23.34 133.96-22.45 133.83-21.56 133.72-20.62 133.61-19.68 133.61-18.99L133.61-18.99Q133.61-18.87 133.53-18.73 133.46-18.58 133.14-18.58L133.14-18.58Q132.85-18.58 132.29-18.79 131.73-18.99 130.91-19.24 130.09-19.48 129.03-19.69 127.97-19.9 126.67-19.9L126.67-19.9Q125.06-19.9 123.77-19.32 122.47-18.75 121.55-17.74 120.62-16.72 120.12-15.33 119.62-13.94 119.62-12.33L119.62-12.33Q119.62-10.64 120.14-9.46 120.67-8.28 121.55-7.53 122.42-6.79 123.57-6.45 124.72-6.1 125.99-6.1L125.99-6.1Q127.45-6.1 128.94-6.51 130.43-6.91 131.75-7.64L131.75-7.64Q131.8-7.67 131.95-7.67L131.95-7.67Q132.07-7.67 132.13-7.54 132.19-7.42 132.19-7.08L132.19-7.08Q132.19-6.3 132.19-5.19 132.19-4.08 132.18-3.06 132.17-2.05 132.14-1.34 132.12-0.63 132.09-0.63L132.09-0.63Q131.21-0.05 130.19 0.32 129.16 0.68 128.08 0.9 126.99 1.12 125.89 1.2 124.79 1.27 123.77 1.27L123.77 1.27Q120.91 1.27 118.44 0.32 115.98-0.63 114.16-2.37 112.34-4.1 111.29-6.53 110.24-8.96 110.24-11.91ZM150.67-27.25L150.67-27.25Q152.99-27.25 154.88-26.38 156.77-25.51 158.13-24.13 159.48-22.75 160.21-21.04 160.95-19.34 160.95-17.63L160.95-17.63Q160.95-16.11 160.02-14.59 159.09-13.06 157.42-11.84 155.75-10.62 153.4-9.86 151.06-9.11 148.25-9.11L148.25-9.11Q146.79-9.11 145.18-9.4L145.18-9.4Q145.27-8.35 145.79-7.59 146.3-6.84 147.08-6.35 147.86-5.86 148.85-5.63 149.84-5.4 150.89-5.4L150.89-5.4Q152.06-5.4 153.15-5.6 154.23-5.81 155.23-6.15 156.24-6.49 157.16-6.91 158.09-7.32 158.92-7.74L158.92-7.74Q159.14-7.79 159.3-7.82 159.46-7.86 159.6-7.86L159.6-7.86Q159.6-7.86 159.59-7.47 159.58-7.08 159.58-6.37 159.58-5.66 159.57-4.66 159.56-3.66 159.53-2.44L159.53-2.44Q159.6-2.32 159.63-2.2 159.65-2.08 159.65-2L159.65-2Q159.65-1.71 159.12-1.37 158.58-1.03 157.71-0.66 156.85-0.29 155.73 0.05 154.62 0.39 153.48 0.67 152.33 0.95 151.25 1.11 150.18 1.27 149.37 1.27L149.37 1.27Q146.74 1.27 144.26 0.35 141.78-0.56 139.87-2.27 137.95-3.98 136.8-6.42 135.65-8.86 135.65-11.91L135.65-11.91Q135.65-15.11 136.75-17.91 137.85-20.7 139.84-22.78 141.83-24.85 144.59-26.05 147.35-27.25 150.67-27.25ZM150.38-20.75L150.38-20.75Q149.37-20.75 148.53-20.32 147.69-19.9 146.99-19.1 146.3-18.31 145.79-17.2 145.27-16.09 144.96-14.75L144.96-14.75Q147.47-15.19 149.13-15.67 150.79-16.16 151.79-16.66 152.79-17.16 153.21-17.66 153.62-18.16 153.62-18.63L153.62-18.63Q153.62-19.07 153.29-19.46 152.96-19.85 152.48-20.14 151.99-20.43 151.41-20.59 150.84-20.75 150.38-20.75ZM202.18-27.66L199.66-4.91Q199.64-4.81 199.64-4.72 199.64-4.64 199.64-4.57L199.64-4.57Q199.64-3.96 199.83-3.55 200.03-3.15 200.26-2.89 200.49-2.64 200.69-2.48 200.88-2.32 200.88-2.2L200.88-2.2Q200.88-1.86 200.15-1.56L200.15-1.56 193.58 1.25Q193.56 1.27 193.41 1.27L193.41 1.27Q193.22 1.27 193.02 0.93 192.83 0.59 192.64 0.06 192.46-0.46 192.3-1.06 192.14-1.66 192.02-2.17L192.02-2.17Q190.48-0.39 188.7 0.44 186.92 1.27 185.16 1.27L185.16 1.27Q183.11 1.27 181.16 0.37 179.2-0.54 177.69-2.21 176.18-3.88 175.26-6.25 174.35-8.62 174.35-11.57L174.35-11.57Q174.35-15.06 175.36-17.94 176.37-20.83 178.11-22.9 179.84-24.98 182.15-26.11 184.45-27.25 187.04-27.25L187.04-27.25Q188.87-27.25 190.51-26.5 192.14-25.76 193.61-24.58L193.61-24.58Q193.75-25.32 193.78-25.76 193.8-26.2 193.89-26.44 193.97-26.68 194.22-26.77 194.46-26.86 195.02-26.9L195.02-26.9Q196.78-27.15 198.53-27.36 200.27-27.56 202.18-27.66L202.18-27.66ZM191.34-6.88L192.36-14.11Q192.61-15.5 192.69-16.74 192.78-17.97 192.83-18.99L192.83-18.99Q192.44-19.29 191.98-19.6 191.53-19.92 191.01-20.2 190.48-20.48 189.91-20.65 189.34-20.83 188.7-20.83L188.7-20.83Q187.38-20.83 186.49-19.97 185.6-19.12 185.05-17.87 184.5-16.63 184.27-15.23 184.04-13.84 184.04-12.77L184.04-12.77Q184.04-8.91 185.05-7.12 186.06-5.32 187.87-5.32L187.87-5.32Q188.6-5.32 189.51-5.74 190.41-6.15 191.34-6.88L191.34-6.88ZM222.9-18.82L218.36-18.82Q218.02-16.26 217.71-13.71 217.41-11.16 217.34-8.94L217.34-8.94Q217.34-7.98 217.48-7.35 217.63-6.71 217.91-6.35 218.19-5.98 218.58-5.82 218.97-5.66 219.46-5.66L219.46-5.66Q220.24-5.66 221.17-5.9 222.1-6.13 223.02-6.49L223.02-6.49Q223.32-6.62 223.52-6.68 223.73-6.74 223.88-6.74L223.88-6.74Q224.12-6.74 224.21-6.52 224.29-6.3 224.38-5.75 224.46-5.2 224.64-4.27 224.81-3.34 225.2-1.93L225.2-1.93Q225.22-1.81 225.23-1.72 225.25-1.64 225.25-1.56L225.25-1.56Q225.25-1.22 224.99-1.07 224.73-0.93 224.15-0.73L224.15-0.73Q223.15-0.39 222.04-0.04 220.92 0.32 219.84 0.61 218.75 0.9 217.75 1.09 216.75 1.27 215.99 1.27L215.99 1.27Q211.92 1.27 210.05-0.76 208.18-2.78 208.18-6.93L208.18-6.93Q208.18-7.64 208.23-8.39 208.28-9.13 208.35-9.94L208.35-9.94Q208.6-12.38 208.78-14.56 208.96-16.75 209.16-18.75L209.16-18.75 206.59-18.75Q205.28-18.75 204.69-18.86 204.1-18.97 204.1-19.31L204.1-19.31Q204.1-19.41 204.35-19.84 204.59-20.26 204.97-20.86 205.35-21.46 205.79-22.14 206.23-22.83 206.63-23.43 207.03-24.02 207.33-24.46 207.62-24.9 207.69-25L207.69-25 209.43-25Q209.65-26.86 209.78-28.11 209.91-29.37 210-30.2 210.08-31.03 210.16-31.48 210.23-31.93 210.32-32.15 210.4-32.37 210.54-32.43 210.67-32.5 210.89-32.54L210.89-32.54Q211.99-32.76 213.01-32.95 214.04-33.13 215.07-33.33 216.09-33.52 217.15-33.78 218.21-34.03 219.36-34.38L219.36-34.38Q219.44-34.38 219.46-34.39 219.48-34.4 219.56-34.4L219.56-34.4Q219.85-34.4 219.85-34.2L219.85-34.2 219.85-34.16Q219.73-32.81 219.47-30.42 219.22-28.03 218.9-25L218.9-25 225.44-25Q225.64-25 225.82-24.87 226-24.73 226-24.41L226-24.41Q226-24.29 225.71-23.54 225.42-22.78 224.88-21.56L224.88-21.56 224-19.58Q223.83-19.21 223.65-19.04 223.46-18.87 222.9-18.82L222.9-18.82ZM254.51-0.95L249.14 11.13Q249.09 11.23 249.03 11.29 248.97 11.35 248.83 11.35L248.83 11.35Q248.68 11.35 248.61 11.33L248.61 11.33Q247.73 11.01 246.95 10.79 246.16 10.57 245.39 10.39 244.63 10.21 243.82 10.05 243.01 9.89 242.11 9.69L242.11 9.69Q241.87 9.64 241.73 9.53 241.6 9.42 241.6 9.16L241.6 9.16Q241.6 9.08 241.68 8.8 241.77 8.52 242.11 7.65 242.45 6.79 243.16 5.14 243.87 3.49 245.11 0.71L245.11 0.71Q244.75-0.51 244.28-2.22 243.82-3.93 243.3-5.96 242.77-7.98 242.21-10.24 241.65-12.5 241.07-14.81 240.5-17.11 239.93-19.37 239.35-21.63 238.82-23.68L238.82-23.68Q238.64-24.07 238.62-24.33 238.6-24.58 238.6-24.76L238.6-24.76Q238.6-25.1 238.99-25.2L238.99-25.2Q240.89-25.61 242.94-26.06 244.99-26.51 246.82-27.22L246.82-27.22Q246.9-27.25 247.04-27.25L247.04-27.25Q247.36-27.25 247.38-27L247.38-27 250.36-10.6Q250.46-10.89 250.74-11.66 251.02-12.43 251.4-13.5 251.78-14.58 252.24-15.87 252.71-17.16 253.2-18.51 253.68-19.85 254.16-21.18 254.64-22.51 255.05-23.66 255.47-24.8 255.77-25.68 256.08-26.56 256.25-27L256.25-27Q256.34-27.25 256.61-27.25L256.61-27.25Q256.69-27.25 256.71-27.23 256.74-27.22 256.81-27.22L256.81-27.22Q258.64-26.51 260.57-26.06 262.5-25.61 264.4-25.2L264.4-25.2Q264.87-25.1 264.87-24.66L264.87-24.66Q264.87-24.34 264.57-23.68L264.57-23.68 254.51-0.95ZM279.07 1.27L279.07 1.27Q275.63 1.27 273.03 0.15 270.43-0.98 268.67-2.84 266.91-4.71 266.03-7.14 265.16-9.57 265.16-12.18L265.16-12.18Q265.16-14.79 266.01-17.15 266.86-19.51 268.4-21.37 269.94-23.24 272.09-24.5 274.24-25.76 276.83-26.2L276.83-26.2Q277.22-26.22 277.22-26.37L277.22-26.37Q277.22-26.64 277.16-26.87 277.09-27.1 277.09-27.27L277.09-27.27Q277.09-27.54 277.19-27.64 277.29-27.73 277.41-27.73L277.41-27.73Q282.07-27.73 285.35-26.67 288.62-25.61 290.67-23.78 292.72-21.95 293.65-19.46 294.57-16.97 294.57-14.11L294.57-14.11Q294.57-10.47 293.35-7.62 292.13-4.76 290.02-2.78 287.91-0.81 285.09 0.23 282.27 1.27 279.07 1.27ZM274.55-12.45L274.55-12.45Q274.55-11.13 274.84-9.84 275.12-8.54 275.76-7.5 276.41-6.45 277.46-5.8 278.51-5.15 280.07-5.15L280.07-5.15Q281.2-5.2 282.04-5.65 282.88-6.1 283.49-6.82 284.1-7.54 284.5-8.45 284.91-9.35 285.14-10.31 285.37-11.28 285.47-12.21 285.57-13.13 285.57-13.89L285.57-13.89Q285.57-15.16 285.19-16.38 284.81-17.6 284.08-18.53 283.34-19.46 282.26-20.03 281.17-20.61 279.76-20.61L279.76-20.61Q278.29-20.61 277.29-19.74 276.29-18.87 275.69-17.6 275.09-16.33 274.82-14.93 274.55-13.53 274.55-12.45ZM325.8-27L323.5-3.03Q323.43-2.22 323.31-1.92 323.19-1.61 322.77-1.51L322.77-1.51Q320.7-0.93 318.44-0.33 316.18 0.27 314.05 1.25L314.05 1.25Q313.98 1.27 313.83 1.27L313.83 1.27Q313.64 1.27 313.6 1.17 313.57 1.07 313.57 0.95L313.57 0.95Q313.57 0.9 313.58 0.78 313.59 0.66 313.64 0.33 313.69 0 313.77-0.59 313.86-1.17 314.01-2.15L314.01-2.15Q311.27-0.37 309.16 0.45 307.05 1.27 305.41 1.27L305.41 1.27Q301.33 1.27 299.47-0.7 297.6-2.66 297.6-6.57L297.6-6.57Q297.6-7.28 297.62-8.02 297.65-8.76 297.77-9.55L297.77-9.55Q298.04-12.43 298.23-14.49 298.43-16.55 298.55-17.99 298.67-19.43 298.76-20.35 298.84-21.26 298.91-21.88 298.97-22.49 299-22.89 299.04-23.29 299.09-23.68L299.09-23.68Q299.19-24.46 299.27-24.78 299.36-25.1 299.82-25.2L299.82-25.2Q300.97-25.42 302.01-25.6 303.04-25.78 304.06-25.99 305.07-26.2 306.12-26.44 307.17-26.68 308.34-27.03L308.34-27.03Q308.39-27.03 308.44-27.04 308.49-27.05 308.54-27.05L308.54-27.05Q308.83-27.05 308.83-26.86L308.83-26.86 308.83-26.81Q308.73-25.98 308.66-25.24 308.59-24.51 308.51-23.74 308.44-22.97 308.35-22.09 308.27-21.22 308.15-20.06 308.02-18.9 307.85-17.38 307.68-15.87 307.44-13.87L307.44-13.87Q307.29-12.4 307.15-10.95 307-9.5 307-8.25L307-8.25Q307-7.57 307.1-6.99 307.19-6.42 307.45-6.02 307.71-5.62 308.12-5.4 308.54-5.18 309.2-5.18L309.2-5.18Q309.71-5.18 310.59-5.41 311.47-5.64 312.35-6.21 313.22-6.79 313.9-7.73 314.57-8.67 314.66-10.11L314.66-10.11Q314.84-12.52 314.97-14.15 315.1-15.77 315.2-16.88 315.3-17.99 315.37-18.75 315.45-19.51 315.51-20.2 315.57-20.9 315.62-21.69 315.67-22.49 315.71-23.68L315.71-23.68Q315.79-24.49 315.9-24.79 316.01-25.1 316.45-25.2L316.45-25.2Q318.67-25.63 320.99-26.09 323.31-26.54 325.53-27.25L325.53-27.25Q325.72-27.25 325.76-27.19 325.8-27.12 325.8-27L325.8-27ZM350.43-27.44L348.92-19.87Q348.4-19.92 347.77-19.98 347.13-20.04 346.42-20.04L346.42-20.04Q345.35-20.04 344.24-19.86 343.13-19.68 342.18-19.14 341.22-18.6 340.54-17.66 339.86-16.72 339.66-15.23L339.66-15.23Q339.49-13.43 339.38-12.27 339.27-11.11 339.22-10.36 339.17-9.62 339.14-9.17 339.1-8.72 339.08-8.33L339.08-8.33Q339.08-8.23 339.04-7.79 339-7.35 338.93-6.76 338.86-6.18 338.8-5.49 338.73-4.81 338.66-4.22 338.59-3.64 338.55-3.2 338.51-2.76 338.51-2.66L338.51-2.66Q338.51-2.47 338.53-2.33 338.54-2.2 338.54-2.08L338.54-2.08Q338.54-1.88 338.36-1.75 338.17-1.61 337.54-1.44L337.54-1.44 331.07 0.88Q330.8 0.98 330.36 1.12 329.92 1.27 329.51 1.27L329.51 1.27Q329.16 1.27 328.91 1.1 328.65 0.93 328.65 0.51L328.65 0.51 330.75-23.68Q330.82-24.49 330.93-24.79 331.04-25.1 331.48-25.2L331.48-25.2Q333.71-25.63 336.07-26.09 338.44-26.54 340.66-27.25L340.66-27.25Q340.86-27.25 340.9-27.19 340.93-27.12 340.93-27L340.93-27Q340.93-26.95 340.92-26.86 340.91-26.76 340.85-26.42 340.79-26.07 340.68-25.38 340.57-24.68 340.37-23.44L340.37-23.44Q341.49-24.32 342.85-25.05 344.2-25.78 345.57-26.31 346.94-26.83 348.21-27.14 349.48-27.44 350.43-27.44L350.43-27.44ZM364.49 0.37L364.49 0.37Q364.51 0.1 364.6-0.79 364.68-1.68 364.8-3.05 364.93-4.42 365.08-6.19 365.24-7.96 365.44-10 365.63-12.04 365.84-14.26 366.05-16.48 366.27-18.75L366.27-18.75 363.02-18.75Q361.7-18.75 361.12-18.86 360.53-18.97 360.53-19.31L360.53-19.31Q360.53-19.41 360.78-19.84 361.02-20.26 361.4-20.86 361.78-21.46 362.22-22.14 362.66-22.83 363.06-23.43 363.46-24.02 363.75-24.46 364.05-24.9 364.12-25L364.12-25 367.1-25 367.59-28.88Q367.93-31.96 368.82-34.06 369.71-36.16 371.04-37.45 372.37-38.75 374.08-39.31 375.79-39.87 377.74-39.87L377.74-39.87Q379.7-39.87 381.81-39.39 383.92-38.92 386.07-38.09L386.07-38.09Q386.53-37.89 386.76-37.76 387-37.62 387-37.4L387-37.4Q387-37.21 386.83-36.89L386.83-36.89Q386.04-35.38 385.67-34.45 385.29-33.52 385.07-32.98 384.85-32.45 384.7-32.26 384.55-32.08 384.26-32.08L384.26-32.08Q384.12-32.08 383.96-32.15 383.8-32.23 383.58-32.32L383.58-32.32Q382.72-32.64 381.86-32.9 380.99-33.15 380.21-33.15L380.21-33.15Q379.11-33.15 378.32-32.47 377.52-31.79 377.06-29.88L377.06-29.88Q376.79-28.78 376.62-27.51 376.45-26.25 376.33-25L376.33-25 382.7-25Q382.89-25 383.08-24.87 383.26-24.73 383.26-24.41L383.26-24.41Q383.26-24.29 382.97-23.54 382.67-22.78 382.14-21.56L382.14-21.56 381.26-19.58Q381.09-19.21 380.9-19.04 380.72-18.87 380.16-18.82L380.16-18.82 375.94-18.82Q375.67-16.28 375.42-13.79 375.18-11.3 374.96-9.12 374.74-6.93 374.57-5.24 374.4-3.54 374.3-2.61L374.3-2.61Q374.28-2.54 374.28-2.34L374.28-2.34Q374.28-2.25 374.29-2.17 374.3-2.1 374.3-2.05L374.3-2.05Q374.3-1.83 374.14-1.7 373.98-1.56 373.32-1.39L373.32-1.39 366.9 0.88Q366.63 0.98 366.2 1.12 365.76 1.27 365.34 1.27L365.34 1.27Q364.93 1.27 364.71 1.07 364.49 0.88 364.49 0.37ZM384.6-10.35L384.6-10.35Q384.92-13.7 385.24-16.97 385.55-20.24 385.8-23.68L385.8-23.68Q385.85-24.49 385.96-24.79 386.07-25.1 386.51-25.2L386.51-25.2Q388.58-25.61 390.85-26.06 393.12-26.51 395.25-27.22L395.25-27.22Q395.32-27.25 395.47-27.25L395.47-27.25Q395.73-27.25 395.73-27.05L395.73-27.05 393.54-3.27Q393.46-2.47 393.37-2.16 393.27-1.86 392.83-1.76L392.83-1.76Q390.75-1.12 388.63-0.34 386.51 0.44 384.14 1.25L384.14 1.25Q384.06 1.27 383.92 1.27L383.92 1.27Q383.65 1.27 383.65 1.03L383.65 1.03Q383.65 1 383.7 0.37 383.75-0.27 383.83-1.27 383.92-2.27 384.02-3.52 384.11-4.76 384.22-6.01 384.33-7.25 384.43-8.4 384.53-9.55 384.6-10.35ZM386.43-29.83L386.43-29.83Q386.51-30.88 386.54-31.45 386.58-32.01 386.6-32.29 386.63-32.57 386.63-32.64 386.63-32.71 386.64-32.75 386.65-32.79 386.66-32.9 386.68-33.01 386.7-33.36 386.73-33.72 386.77-34.4 386.82-35.08 386.92-36.28L386.92-36.28Q386.97-37.08 387.08-37.39 387.19-37.7 387.63-37.79L387.63-37.79Q389.7-38.21 391.97-38.66 394.24-39.11 396.37-39.82L396.37-39.82Q396.44-39.84 396.59-39.84L396.59-39.84Q396.66-39.7 396.78-39.65L396.78-39.65 396.86-39.6 396.32-32.91Q396.25-32.1 396.14-31.79 396.03-31.47 395.61-31.4L395.61-31.4Q393.54-31.01 391.41-30.54 389.29-30.08 386.92-29.61L386.92-29.61Q386.85-29.59 386.7-29.59L386.7-29.59Q386.43-29.59 386.43-29.83ZM425.1-0.78L419.17 0.88Q418.9 0.95 418.46 1.11 418.02 1.27 417.61 1.27L417.61 1.27Q417.26 1.27 417.01 1.1 416.75 0.93 416.75 0.51L416.75 0.51 416.75 0.37Q416.9-0.95 417-1.87 417.09-2.78 417.18-3.53 417.26-4.27 417.33-5.02 417.39-5.76 417.48-6.75 417.58-7.74 417.72-9.09 417.85-10.45 418.05-12.48L418.05-12.48Q418.17-13.72 418.27-15.01 418.36-16.31 418.36-17.41L418.36-17.41Q418.36-18.14 418.25-18.76 418.14-19.38 417.86-19.84 417.58-20.29 417.09-20.53 416.61-20.78 415.85-20.78L415.85-20.78Q415.29-20.78 414.3-20.53 413.31-20.29 412.33-19.73 411.36-19.17 410.6-18.25 409.84-17.33 409.75-15.99L409.75-15.99Q409.6-14.18 409.48-12.9 409.35-11.62 409.26-10.73 409.16-9.84 409.1-9.28 409.04-8.72 409.01-8.33L409.01-8.33Q408.99-8.23 408.94-7.79 408.89-7.35 408.83-6.74 408.77-6.13 408.71-5.44 408.65-4.76 408.59-4.15 408.52-3.54 408.49-3.1 408.45-2.66 408.45-2.56L408.45-2.56Q408.45-2.37 408.46-2.23 408.48-2.1 408.48-1.98L408.48-1.98Q408.48-1.78 408.29-1.65 408.11-1.51 407.47-1.34L407.47-1.34 401 0.88Q400.74 0.98 400.3 1.12 399.86 1.27 399.44 1.27L399.44 1.27Q399.1 1.27 398.84 1.1 398.59 0.93 398.59 0.51L398.59 0.51 400.81-24.44Q400.88-25.24 400.99-25.55 401.1-25.85 401.54-25.95L401.54-25.95Q403.76-26.39 406.11-26.84 408.45-27.29 410.67-28L410.67-28Q410.87-28 410.9-27.94 410.94-27.88 410.94-27.76L410.94-27.76Q410.94-27.71 410.93-27.61 410.92-27.51 410.86-27.17 410.79-26.83 410.68-26.14 410.58-25.44 410.38-24.19L410.38-24.19Q412.06-25.17 413.54-25.77 415.02-26.37 416.32-26.7 417.63-27.03 418.78-27.14 419.93-27.25 420.93-27.25L420.93-27.25Q424.37-27.25 425.93-25.16 427.49-23.07 427.49-18.9L427.49-18.9Q427.49-18.31 427.47-17.69 427.45-17.07 427.37-16.41L427.37-16.41 426.25-5.91Q426.13-4.88 426.1-4.02 426.08-3.15 426.08-2L426.08-2Q426.08-1.81 426.09-1.67 426.1-1.54 426.1-1.44L426.1-1.44Q426.1-1.22 425.92-1.1 425.74-0.98 425.1-0.78L425.1-0.78ZM448.95-17.04L448.98-17.41Q448.73-17.97 448.3-18.55 447.88-19.14 447.32-19.63 446.75-20.12 446.1-20.42 445.44-20.73 444.7-20.73L444.7-20.73Q443.7-20.73 442.82-19.9 441.94-19.07 441.29-17.69 440.63-16.31 440.25-14.54 439.87-12.77 439.87-10.86L439.87-10.86Q439.87-9.69 440.08-8.65 440.28-7.62 440.72-6.84 441.16-6.05 441.86-5.59 442.56-5.13 443.53-5.13L443.53-5.13Q445-5.13 446.22-6.04 447.44-6.96 448.29-8.42L448.29-8.42Q448.32-8.94 448.37-9.64 448.41-10.35 448.49-11.36 448.56-12.38 448.67-13.76 448.78-15.14 448.95-17.04L448.95-17.04ZM459.57-25.71L457.06-2.66Q456.81-0.24 455.96 1.86 455.1 3.96 453.8 5.7 452.49 7.45 450.82 8.83 449.15 10.21 447.28 11.16 445.41 12.11 443.43 12.61 441.46 13.11 439.53 13.11L439.53 13.11Q438.5 13.11 437.43 13.04 436.35 12.96 435.33 12.76 434.3 12.55 433.38 12.17 432.45 11.79 431.72 11.21L431.72 11.21 431.72 11.18Q431.72 11.06 431.9 10.33 432.08 9.59 432.34 8.61 432.59 7.62 432.87 6.57 433.16 5.52 433.35 4.76L433.35 4.76Q433.45 4.42 433.55 4.3 433.64 4.17 433.77 4.17L433.77 4.17Q433.91 4.17 433.94 4.2L433.94 4.2Q434.64 4.66 435.27 4.97 435.89 5.27 436.59 5.46 437.28 5.64 438.11 5.71 438.94 5.79 440.04 5.79L440.04 5.79Q441.75 5.79 443.07 5.13 444.39 4.47 445.34 3.42 446.29 2.37 446.86 1.11 447.44-0.15 447.66-1.37L447.66-1.37Q445.9-0.2 444.09 0.54 442.29 1.27 440.46 1.27L440.46 1.27Q437.94 1.27 436.11 0.26 434.28-0.76 433.08-2.47 431.89-4.17 431.31-6.38 430.74-8.59 430.74-11.01L430.74-11.01Q430.74-12.92 431.09-14.86 431.45-16.8 432.14-18.6 432.84-20.41 433.86-21.98 434.89-23.56 436.23-24.73 437.57-25.9 439.21-26.57 440.85-27.25 442.77-27.25L442.77-27.25Q444.87-27.25 446.67-26.32 448.46-25.39 449.93-24.02L449.93-24.02Q449.98-24.46 450-24.72 450.03-24.98 450.12-25.12 450.22-25.27 450.45-25.34 450.68-25.42 451.12-25.51L451.12-25.51Q451.39-25.56 452.1-25.72 452.81-25.88 453.79-26.1 454.76-26.32 455.93-26.56 457.11-26.81 458.3-27.08L458.3-27.08Q458.6-27.15 458.84-27.15L458.84-27.15Q459.6-27.15 459.6-26.17L459.6-26.17Q459.6-26.05 459.6-25.94 459.6-25.83 459.57-25.71L459.57-25.71ZM477.34-27.25L477.34-27.25Q479.66-27.25 481.55-26.38 483.45-25.51 484.8-24.13 486.16-22.75 486.89-21.04 487.62-19.34 487.62-17.63L487.62-17.63Q487.62-16.11 486.69-14.59 485.77-13.06 484.09-11.84 482.42-10.62 480.08-9.86 477.73-9.11 474.93-9.11L474.93-9.11Q473.46-9.11 471.85-9.4L471.85-9.4Q471.95-8.35 472.46-7.59 472.97-6.84 473.75-6.35 474.53-5.86 475.52-5.63 476.51-5.4 477.56-5.4L477.56-5.4Q478.73-5.4 479.82-5.6 480.91-5.81 481.91-6.15 482.91-6.49 483.84-6.91 484.76-7.32 485.59-7.74L485.59-7.74Q485.81-7.79 485.97-7.82 486.13-7.86 486.28-7.86L486.28-7.86Q486.28-7.86 486.27-7.47 486.25-7.08 486.25-6.37 486.25-5.66 486.24-4.66 486.23-3.66 486.2-2.44L486.2-2.44Q486.28-2.32 486.3-2.2 486.33-2.08 486.33-2L486.33-2Q486.33-1.71 485.79-1.37 485.25-1.03 484.39-0.66 483.52-0.29 482.41 0.05 481.3 0.39 480.15 0.67 479 0.95 477.93 1.11 476.85 1.27 476.05 1.27L476.05 1.27Q473.41 1.27 470.93 0.35 468.46-0.56 466.54-2.27 464.62-3.98 463.48-6.42 462.33-8.86 462.33-11.91L462.33-11.91Q462.33-15.11 463.43-17.91 464.53-20.7 466.51-22.78 468.5-24.85 471.26-26.05 474.02-27.25 477.34-27.25ZM477.05-20.75L477.05-20.75Q476.05-20.75 475.21-20.32 474.36-19.9 473.67-19.1 472.97-18.31 472.46-17.2 471.95-16.09 471.63-14.75L471.63-14.75Q474.14-15.19 475.8-15.67 477.46-16.16 478.47-16.66 479.47-17.16 479.88-17.66 480.3-18.16 480.3-18.63L480.3-18.63Q480.3-19.07 479.97-19.46 479.64-19.85 479.15-20.14 478.66-20.43 478.09-20.59 477.51-20.75 477.05-20.75ZM512.15-27.44L510.64-19.87Q510.13-19.92 509.49-19.98 508.86-20.04 508.15-20.04L508.15-20.04Q507.08-20.04 505.97-19.86 504.85-19.68 503.9-19.14 502.95-18.6 502.27-17.66 501.58-16.72 501.39-15.23L501.39-15.23Q501.22-13.43 501.11-12.27 501-11.11 500.95-10.36 500.9-9.62 500.86-9.17 500.83-8.72 500.8-8.33L500.8-8.33Q500.8-8.23 500.77-7.79 500.73-7.35 500.66-6.76 500.58-6.18 500.52-5.49 500.46-4.81 500.39-4.22 500.31-3.64 500.28-3.2 500.24-2.76 500.24-2.66L500.24-2.66Q500.24-2.47 500.25-2.33 500.26-2.2 500.26-2.08L500.26-2.08Q500.26-1.88 500.08-1.75 499.9-1.61 499.26-1.44L499.26-1.44 492.79 0.88Q492.53 0.98 492.09 1.12 491.65 1.27 491.23 1.27L491.23 1.27Q490.89 1.27 490.63 1.1 490.38 0.93 490.38 0.51L490.38 0.51 492.48-23.68Q492.55-24.49 492.66-24.79 492.77-25.1 493.21-25.2L493.21-25.2Q495.43-25.63 497.8-26.09 500.17-26.54 502.39-27.25L502.39-27.25Q502.58-27.25 502.62-27.19 502.66-27.12 502.66-27L502.66-27Q502.66-26.95 502.65-26.86 502.63-26.76 502.57-26.42 502.51-26.07 502.4-25.38 502.29-24.68 502.1-23.44L502.1-23.44Q503.22-24.32 504.57-25.05 505.93-25.78 507.3-26.31 508.66-26.83 509.93-27.14 511.2-27.44 512.15-27.44L512.15-27.44ZM530.44-18.82L525.9-18.82Q525.56-16.26 525.25-13.71 524.95-11.16 524.87-8.94L524.87-8.94Q524.87-7.98 525.02-7.35 525.16-6.71 525.45-6.35 525.73-5.98 526.12-5.82 526.51-5.66 527-5.66L527-5.66Q527.78-5.66 528.7-5.9 529.63-6.13 530.56-6.49L530.56-6.49Q530.85-6.62 531.06-6.68 531.27-6.74 531.41-6.74L531.41-6.74Q531.66-6.74 531.74-6.52 531.83-6.3 531.92-5.75 532-5.2 532.17-4.27 532.34-3.34 532.73-1.93L532.73-1.93Q532.76-1.81 532.77-1.72 532.78-1.64 532.78-1.56L532.78-1.56Q532.78-1.22 532.53-1.07 532.27-0.93 531.68-0.73L531.68-0.73Q530.68-0.39 529.57-0.04 528.46 0.32 527.37 0.61 526.29 0.9 525.29 1.09 524.29 1.27 523.53 1.27L523.53 1.27Q519.45 1.27 517.58-0.76 515.72-2.78 515.72-6.93L515.72-6.93Q515.72-7.64 515.77-8.39 515.81-9.13 515.89-9.94L515.89-9.94Q516.13-12.38 516.31-14.56 516.5-16.75 516.69-18.75L516.69-18.75 514.13-18.75Q512.81-18.75 512.23-18.86 511.64-18.97 511.64-19.31L511.64-19.31Q511.64-19.41 511.88-19.84 512.13-20.26 512.51-20.86 512.88-21.46 513.32-22.14 513.76-22.83 514.17-23.43 514.57-24.02 514.86-24.46 515.15-24.9 515.23-25L515.23-25 516.96-25Q517.18-26.86 517.32-28.11 517.45-29.37 517.54-30.2 517.62-31.03 517.69-31.48 517.77-31.93 517.85-32.15 517.94-32.37 518.07-32.43 518.21-32.5 518.43-32.54L518.43-32.54Q519.53-32.76 520.55-32.95 521.58-33.13 522.6-33.33 523.63-33.52 524.69-33.78 525.75-34.03 526.9-34.38L526.9-34.38Q526.97-34.38 527-34.39 527.02-34.4 527.09-34.4L527.09-34.4Q527.39-34.4 527.39-34.2L527.39-34.2 527.39-34.16Q527.26-32.81 527.01-30.42 526.75-28.03 526.43-25L526.43-25 532.98-25Q533.17-25 533.36-24.87 533.54-24.73 533.54-24.41L533.54-24.41Q533.54-24.29 533.25-23.54 532.95-22.78 532.42-21.56L532.42-21.56 531.54-19.58Q531.37-19.21 531.18-19.04 531-18.87 530.44-18.82L530.44-18.82ZM536.17-10.35L536.17-10.35Q536.49-13.7 536.81-16.97 537.13-20.24 537.37-23.68L537.37-23.68Q537.42-24.49 537.53-24.79 537.64-25.1 538.08-25.2L538.08-25.2Q540.15-25.61 542.42-26.06 544.69-26.51 546.82-27.22L546.82-27.22Q546.89-27.25 547.04-27.25L547.04-27.25Q547.31-27.25 547.31-27.05L547.31-27.05 545.11-3.27Q545.04-2.47 544.94-2.16 544.84-1.86 544.4-1.76L544.4-1.76Q542.33-1.12 540.2-0.34 538.08 0.44 535.71 1.25L535.71 1.25Q535.64 1.27 535.49 1.27L535.49 1.27Q535.22 1.27 535.22 1.03L535.22 1.03Q535.22 1 535.27 0.37 535.32-0.27 535.4-1.27 535.49-2.27 535.59-3.52 535.68-4.76 535.79-6.01 535.9-7.25 536-8.4 536.1-9.55 536.17-10.35ZM538-29.83L538-29.83Q538.08-30.88 538.11-31.45 538.15-32.01 538.17-32.29 538.2-32.57 538.2-32.64 538.2-32.71 538.21-32.75 538.22-32.79 538.24-32.9 538.25-33.01 538.27-33.36 538.3-33.72 538.35-34.4 538.39-35.08 538.49-36.28L538.49-36.28Q538.54-37.08 538.65-37.39 538.76-37.7 539.2-37.79L539.2-37.79Q541.28-38.21 543.55-38.66 545.82-39.11 547.94-39.82L547.94-39.82Q548.01-39.84 548.16-39.84L548.16-39.84Q548.23-39.7 548.36-39.65L548.36-39.65 548.43-39.6 547.89-32.91Q547.82-32.1 547.71-31.79 547.6-31.47 547.18-31.4L547.18-31.4Q545.11-31.01 542.98-30.54 540.86-30.08 538.49-29.61L538.49-29.61Q538.42-29.59 538.27-29.59L538.27-29.59Q538-29.59 538-29.83ZM561.46-17.41L561.39-17.04Q561.24-14.7 561.13-13.23 561.02-11.77 560.95-10.85 560.88-9.94 560.83-9.41 560.78-8.89 560.76-8.42L560.76-8.42Q561.32-6.96 562.42-6.04 563.51-5.13 565.05-5.13L565.05-5.13Q566.4-5.13 567.41-5.97 568.42-6.81 569.09-8.15 569.76-9.5 570.11-11.16 570.45-12.82 570.45-14.45L570.45-14.45Q570.45-15.8 570.22-16.94 569.98-18.09 569.52-18.93 569.06-19.78 568.36-20.25 567.66-20.73 566.71-20.73L566.71-20.73Q565.93-20.73 565.16-20.42 564.39-20.12 563.69-19.64 562.98-19.17 562.4-18.57 561.83-17.97 561.46-17.41L561.46-17.41ZM561.88-24.19L561.88-24.19Q563.93-25.59 566.18-26.42 568.42-27.25 570.86-27.25L570.86-27.25Q573.16-27.25 574.83-26.31 576.5-25.37 577.6-23.77 578.7-22.17 579.22-20.09 579.75-18.02 579.75-15.75L579.75-15.75Q579.75-13.77 579.36-11.74 578.97-9.72 578.21-7.82 577.45-5.93 576.33-4.27 575.21-2.61 573.76-1.38 572.3-0.15 570.52 0.56 568.74 1.27 566.66 1.27L566.66 1.27Q564.83 1.27 563.16 0.54 561.49-0.2 560.02-1.37L560.02-1.37Q560.02-1.25 559.96-0.48 559.9 0.29 559.8 1.39 559.71 2.49 559.58 3.75 559.46 5 559.36 6.1 559.27 7.2 559.21 7.97 559.14 8.74 559.14 8.86L559.14 8.86Q559.14 9.06 559.16 9.19 559.17 9.33 559.17 9.45L559.17 9.45Q559.17 9.64 558.99 9.78 558.8 9.91 558.17 10.08L558.17 10.08 551.75 11.72Q551.48 11.79 551.04 11.95 550.6 12.11 550.18 12.11L550.18 12.11Q549.84 12.11 549.59 11.94 549.33 11.77 549.33 11.3L549.33 11.3 552.31-24.44Q552.38-25.24 552.49-25.55 552.6-25.85 553.04-25.95L553.04-25.95Q555.26-26.39 557.61-26.84 559.95-27.29 562.17-28L562.17-28Q562.37-28 562.4-27.94 562.44-27.88 562.44-27.76L562.44-27.76Q562.44-27.71 562.43-27.61 562.42-27.51 562.35-27.17 562.29-26.83 562.18-26.14 562.07-25.44 561.88-24.19ZM583.26-0.07L582.95-6.74Q582.95-6.76 582.93-6.77 582.92-6.79 582.92-6.81L582.92-6.81Q582.92-7.13 583.26-7.13L583.26-7.13Q583.48-7.13 583.65-6.96L583.65-6.96Q584.63-6.03 585.89-5.44 587.14-4.86 588.61-4.86L588.61-4.86Q589-4.86 589.51-4.94 590.03-5.03 590.49-5.22 590.95-5.42 591.26-5.75 591.56-6.08 591.56-6.57L591.56-6.57Q591.56-7.1 591.29-7.56 591.03-8.01 590.59-8.3L590.59-8.3Q590.34-8.47 589.73-8.9 589.12-9.33 588.43-9.81 587.73-10.3 587.11-10.74 586.49-11.18 586.24-11.38L586.24-11.38Q585.14-12.21 584.5-13.06 583.85-13.92 583.51-14.83 583.17-15.75 583.07-16.75 582.97-17.75 582.97-18.87L582.97-18.87Q582.97-20.58 583.87-22.09 584.78-23.61 586.25-24.76 587.73-25.9 589.61-26.57 591.49-27.25 593.44-27.25L593.44-27.25Q595.05-27.25 596.62-26.76 598.18-26.27 599.52-25.1L599.52-25.1Q599.64-23.56 599.69-22.07 599.74-20.58 599.84-18.95L599.84-18.95Q599.84-18.63 599.69-18.52 599.55-18.41 599.35-18.41L599.35-18.41Q599.18-18.41 599.06-18.53L599.06-18.53Q598.5-19.07 597.91-19.59 597.33-20.12 596.68-20.52 596.03-20.92 595.3-21.18 594.57-21.44 593.74-21.44L593.74-21.44Q593.22-21.44 592.71-21.35 592.2-21.26 591.78-21.03 591.37-20.8 591.11-20.41 590.86-20.02 590.86-19.41L590.86-19.41Q590.86-18.7 591.03-18.19 591.2-17.68 591.83-17.19L591.83-17.19 596.37-14.11Q597.62-13.26 598.39-12.44 599.16-11.62 599.6-10.82 600.04-10.01 600.19-9.22 600.35-8.42 600.35-7.64L600.35-7.64Q600.35-5.44 599.34-3.77 598.33-2.1 596.71-0.99 595.1 0.12 593.06 0.7 591.03 1.27 588.98 1.27L588.98 1.27Q587.41 1.27 585.96 0.94 584.51 0.61 583.26-0.07L583.26-0.07Z" opacity="1" transform="matrix(1,0,0,1,0,0)" fill="#0e5ddd" class="slogan-text-1" data-fill-palette-color="secondary" id="text-1"></path></svg></g></svg></g></svg></g></svg></g></svg></g><defs></defs></svg><rect width="395.52" height="140.53760233752755" fill="none" stroke="none" visibility="hidden"></rect></g></svg></g></svg>